<?xml version="1.0" encoding="UTF-8" standalone="no"?>
<!-- Generator: https://ezgif.com/png-to-svg -->

<svg
   version="1.1"
   width="876"
   height="1273"
   id="svg773"
   xmlns="http://www.w3.org/2000/svg"
   xmlns:svg="http://www.w3.org/2000/svg">
  <defs
     id="defs773" />
  <g
     id="layer1">
    <path
       style="fill:none;stroke:#000000;stroke-width:10;stroke-linecap:butt;stroke-linejoin:miter;stroke-dasharray:none;stroke-opacity:1"
       d="M 70.382212,4.5901442 32.13101,30.600962 16.830529,100.98317 18.360577,162.1851 3.0600962,174.42548 10.710337,269.28846 4.5901442,384.04207 33.661058,411.58293 1.5300481,480.4351 v 38.2512 l 6.1201923,53.55168 4.5901446,55.08173 4.590144,10.71034 -15.3004809,12.24038 7.6502404,12.24039 1.5300485,30.60096 -6.1201928,55.08173 1.5300481,26.01082 -3.0600961,30.60096 3.0600961,36.72115 L 18.360577,856.82693 4.5901442,898.13822 13.770433,1022.0721 -1.5300481,1069.5036 0,1150.5962 l 10.710337,33.661 10.710336,53.5517 22.950721,18.3606 h 18.360577 l 16.830529,15.3005 41.3113,1.53 9.18029,-10.7103 32.13101,4.5901 21.42067,-6.1202 26.01082,3.0601 19.89062,-1.53 110.16346,-1.5301 149.94472,6.1202 79.5625,-4.5901 h 36.72115 l 107.10337,-3.0601 41.31129,4.5901 48.96154,-4.5901 41.3113,-70.3822 6.12019,-30.601 -3.06009,-35.1911 6.12019,-24.4808 -4.59015,-36.7211 6.1202,-45.9015 c 0,0 -1.53005,-42.84132 0,-50.49156 1.53005,-7.65024 6.12019,-61.20192 6.12019,-61.20192 l 6.12019,-64.26202 4.59015,-88.74279 -1.53005,-56.61178 v -44.3714 l -12.24039,-27.54086 10.71034,-27.54087 3.0601,-32.13101 -9.18029,-45.90144 7.65024,-29.07091 -1.53005,-32.13101 -12.24038,-32.13101 -7.65025,-21.42067 12.24039,-15.30049 4.59014,-22.95072 V 321.3101 l -12.24038,-47.43149 -4.59015,-42.84135 6.1202,-90.27284 6.12019,-53.551679 L 853.76683,56.611779 813.98558,38.251202 792.56491,6.1201923 725.24279,52.021635 691.58173,53.551683 664.04087,19.890625 590.59856,21.420673 h -41.3113 L 530.92668,55.081731 492.67548,13.770433 474.31491,6.1201923 443.71394,13.770433 460.54447,33.661058 413.11298,13.770433 361.09135,4.5901442 315.1899,16.830529 270.81851,33.661058 240.21755,30.600962 191.25601,12.240385 131.58413,13.770433 97.923077,35.191106 96.393029,10.710337 Z"
       id="path774" />
  </g>
</svg>
