<?xml version="1.0" encoding="UTF-8"?>
<!-- Generator: https://ezgif.com/png-to-svg -->
<svg version="1.1" xmlns="http://www.w3.org/2000/svg" width="376" height="491">
<path d="M0,0 L20,0 L38,4 L54,10 L72,20 L85,30 L97,41 L105,49 L116,63 L126,77 L130,84 L130,86 L132,86 L133,80 L133,62 L128,43 L118,19 L116,12 L117,5 L122,6 L138,16 L155,24 L165,28 L176,35 L189,47 L198,57 L208,72 L209,74 L220,55 L228,45 L237,37 L244,34 L251,34 L252,36 L248,48 L246,61 L246,73 L249,87 L256,100 L263,110 L271,124 L275,135 L277,147 L277,156 L275,171 L271,193 L270,206 L270,216 L272,235 L277,255 L280,278 L280,302 L277,322 L270,343 L259,366 L248,384 L237,398 L226,410 L215,419 L200,429 L184,437 L164,444 L141,449 L130,450 L92,450 L70,446 L52,440 L35,432 L24,425 L12,416 L0,405 L-7,398 L-20,381 L-31,362 L-39,344 L-45,325 L-49,303 L-50,282 L-48,261 L-46,249 L-46,212 L-49,189 L-55,168 L-56,158 L-56,142 L-54,124 L-50,107 L-44,91 L-37,79 L-29,69 L-20,60 L-9,53 L-7,53 L-6,73 L-2,88 L5,101 L12,110 L15,112 L16,89 L19,71 L25,50 L25,36 L22,24 L18,16 L11,8 L0,1 Z M16,113 Z " fill="#BE2E26" transform="translate(80,22)"/>
<path d="M0,0 L20,0 L38,4 L54,10 L72,20 L85,30 L97,41 L105,49 L116,63 L126,77 L130,84 L130,86 L132,86 L133,80 L133,62 L128,43 L118,19 L116,12 L117,5 L122,6 L138,16 L155,24 L165,28 L176,35 L189,47 L198,57 L208,72 L209,74 L220,55 L228,45 L237,37 L244,34 L251,34 L252,36 L248,48 L246,61 L246,73 L249,87 L256,100 L263,110 L271,124 L275,135 L277,147 L277,156 L275,171 L271,193 L270,206 L270,216 L272,235 L277,255 L280,278 L280,302 L277,322 L270,343 L259,366 L248,384 L237,398 L226,410 L215,419 L200,429 L184,437 L164,444 L141,449 L130,450 L92,450 L70,446 L52,440 L35,432 L24,425 L12,416 L0,405 L-7,398 L-20,381 L-31,362 L-39,344 L-45,325 L-49,303 L-50,282 L-48,261 L-46,249 L-46,212 L-49,189 L-55,168 L-56,158 L-56,142 L-54,124 L-50,107 L-44,91 L-37,79 L-29,69 L-20,60 L-9,53 L-7,53 L-6,73 L-2,88 L5,101 L12,110 L15,112 L16,89 L19,71 L25,50 L25,36 L22,24 L18,16 L11,8 L0,1 Z M46,28 L46,53 L42,69 L38,81 L37,87 L37,111 L40,128 L42,134 L18,133 L8,130 L-3,124 L-10,116 L-16,105 L-19,93 L-23,95 L-30,109 L-34,127 L-35,135 L-35,163 L-29,183 L-26,196 L-23,217 L-23,247 L-25,263 L-25,303 L-22,321 L-16,338 L-6,357 L3,371 L12,383 L17,388 L24,395 L34,403 L51,413 L67,420 L86,425 L97,427 L126,427 L147,424 L166,419 L178,414 L190,408 L202,399 L214,388 L224,376 L234,363 L240,353 L246,341 L250,330 L255,313 L257,300 L257,275 L254,259 L251,239 L251,211 L254,187 L257,175 L258,167 L258,145 L255,135 L243,114 L231,91 L228,86 L227,86 L224,107 L220,119 L213,133 L211,137 L209,137 L209,121 L206,108 L200,92 L191,77 L182,66 L171,55 L157,45 L153,42 L150,42 L152,55 L152,79 L148,95 L142,107 L137,114 L129,121 L125,123 L124,115 L118,100 L109,83 L97,67 L77,47 L71,43 L55,32 Z M16,113 Z " fill="#030101" transform="translate(80,22)"/>
<path d="M0,0 L2,1 L3,4 L8,4 L8,6 L10,6 L10,4 L14,3 L32,3 L37,8 L37,25 L35,46 L35,54 L37,54 L37,57 L35,57 L38,62 L34,64 L37,69 L35,69 L35,71 L37,71 L35,75 L16,84 L-5,90 L-17,92 L-37,92 L-57,89 L-75,84 L-85,80 L-93,76 L-89,75 L-85,76 L-77,75 L-77,73 L-73,74 L-72,76 L-77,77 L-77,80 L-71,83 L-61,85 L-61,83 L-48,80 L-66,76 L-74,72 L-79,66 L-80,64 L-80,57 L-78,50 L-70,34 L-63,25 L-58,20 L-56,20 L-54,27 L-51,27 L-49,21 L-43,16 L-37,14 L-18,14 L-16,10 L-10,9 L-9,7 L-12,5 L-12,3 L-7,1 Z " fill="#0B0909" transform="translate(227,340)"/>
<path d="M0,0 L2,0 L6,7 L14,17 L14,20 L12,20 L12,36 L10,36 L10,39 L12,39 L14,46 L14,50 L16,50 L17,59 L15,59 L15,66 L18,65 L21,70 L21,72 L19,72 L19,74 L22,75 L23,74 L25,74 L25,52 L27,52 L29,64 L30,82 L37,78 L38,80 L36,80 L36,95 L44,105 L56,116 L63,121 L64,117 L70,120 L73,123 L73,114 L78,101 L89,81 L90,80 L90,75 L85,72 L79,70 L81,66 L79,66 L73,65 L70,63 L70,60 L68,60 L68,53 L71,53 L71,51 L80,53 L98,58 L104,59 L133,59 L149,57 L162,54 L172,54 L176,55 L176,53 L190,48 L197,46 L203,48 L202,52 L205,52 L204,64 L199,65 L198,102 L197,112 L207,106 L213,97 L214,85 L217,83 L220,83 L221,78 L224,77 L226,78 L230,78 L231,75 L232,76 L232,83 L233,88 L231,89 L230,93 L228,93 L227,99 L225,99 L224,103 L220,103 L220,107 L218,107 L217,110 L216,110 L216,112 L213,112 L213,115 L211,115 L211,120 L197,131 L194,132 L194,130 L192,130 L192,126 L191,123 L194,120 L192,119 L192,116 L194,116 L194,113 L191,114 L191,105 L193,84 L193,67 L189,63 L167,63 L167,65 L165,65 L165,63 L161,63 L160,65 L160,63 L156,62 L159,62 L157,60 L145,62 L146,64 L154,65 L154,66 L147,68 L140,71 L139,73 L120,74 L112,77 L108,81 L107,87 L102,86 L101,79 L93,86 L84,100 L80,109 L78,116 L78,123 L82,129 L88,133 L104,137 L118,139 L118,140 L96,142 L96,144 L86,143 L78,140 L80,139 L80,136 L84,134 L80,132 L80,134 L71,136 L60,133 L48,125 L33,111 L23,98 L15,84 L6,59 L2,36 L1,24 L-3,18 L-5,12 L-5,5 Z M16,69 Z " fill="#070304" transform="translate(70,281)"/>
<path d="M0,0 L8,6 L21,15 L36,23 L49,29 L57,32 L57,35 L54,35 L54,42 L56,42 L57,45 L65,48 L66,46 L68,48 L66,52 L75,55 L77,57 L77,62 L67,79 L61,92 L59,105 L56,104 L55,102 L50,100 L49,103 L45,101 L31,89 L23,80 L21,77 L21,65 L22,62 L16,64 L13,34 L11,34 L11,56 L9,56 L9,58 L5,56 L5,54 L7,54 L4,50 L3,48 L1,48 L0,43 L1,41 L3,41 L2,32 L0,32 L-2,21 L-4,21 L-4,18 L-2,18 L-3,8 L-2,2 L0,2 Z M2,51 L4,52 Z " fill="#060606" transform="translate(84,299)"/>
<path d="M0,0 L2,1 L3,5 L3,16 L-1,25 L-3,46 L-6,60 L-11,76 L-16,88 L-24,102 L-34,115 L-41,121 L-41,117 L-39,117 L-39,114 L-36,114 L-36,112 L-38,111 L-35,111 L-34,109 L-32,109 L-32,105 L-30,103 L-27,103 L-27,101 L-25,101 L-24,95 L-22,95 L-21,90 L-19,90 L-21,85 L-21,78 L-22,80 L-27,81 L-30,81 L-32,82 L-32,85 L-37,87 L-38,99 L-45,109 L-53,114 L-55,114 L-54,77 L-53,67 L-49,66 L-47,54 L-50,54 L-50,51 L-57,49 L-74,55 L-76,55 L-76,57 L-85,56 L-82,54 L-64,48 L-47,40 L-36,33 L-28,32 L-28,34 L-26,34 L-26,36 L-24,36 L-22,38 L-22,36 L-16,36 L-13,40 L-13,42 L-16,42 L-14,43 L-13,48 L-14,49 L-15,57 L-13,56 L-11,53 L-10,54 L-10,60 L-8,60 L-7,47 L-6,45 L-5,35 L-3,35 L-3,22 L-1,22 L1,4 L-2,4 Z " fill="#0E0403" transform="translate(322,279)"/>
<path d="M0,0 L1,0 L5,25 L7,36 L7,61 L4,77 L-2,98 L-10,114 L-11,110 L-9,110 L-8,104 L-11,104 L-13,101 L-12,79 L-10,79 L-10,72 L-12,72 L-13,85 L-16,93 L-19,94 L-15,78 L-12,64 L-10,43 L-6,34 L-6,23 L-8,19 L-10,22 L-7,22 L-7,33 L-9,40 L-11,40 L-11,53 L-13,53 L-13,63 L-14,65 L-14,72 L-16,78 L-18,78 L-19,72 L-21,75 L-23,75 L-23,67 L-22,65 L-24,60 L-23,57 L-24,54 L-29,55 L-31,57 L-32,54 L-34,54 L-34,52 L-36,52 L-36,50 L-42,51 L-38,47 L-29,40 L-17,29 L-16,22 L-14,17 L-11,17 L-4,16 L-5,20 L-3,20 L-2,28 L-2,9 L-1,8 Z " fill="#B72E26" transform="translate(330,261)"/>
<path d="M0,0 L19,0 L29,4 L35,8 L48,18 L58,22 L68,25 L81,26 L81,32 L77,38 L72,41 L56,43 L48,48 L36,48 L31,43 L31,40 L28,41 L28,38 L23,38 L22,34 L19,33 L21,28 L23,27 L23,31 L27,33 L26,36 L29,37 L29,35 L36,36 L44,36 L45,35 L35,29 L31,25 L30,15 L24,17 L24,15 L22,15 L22,17 L19,18 L18,22 L20,22 L19,30 L16,30 L16,25 L14,24 L15,30 L12,27 L10,22 L9,14 L4,10 L-4,7 L-11,6 L-11,4 Z " fill="#090202" transform="translate(110,247)"/>
<path d="M0,0 L2,0 L8,9 L17,20 L28,38 L29,41 L29,48 L24,54 L11,61 L1,64 L-13,64 L-14,63 L-14,55 L-4,24 L-1,12 Z " fill="#F8F8F8" transform="translate(223,355)"/>
<path d="M0,0 L25,0 L30,6 L30,18 L26,33 L23,43 L18,55 L15,62 L11,58 L1,40 L-7,22 L-8,17 L-8,8 L-5,3 Z " fill="#FAFAFA" transform="translate(186,355)"/>
<path d="M0,0 L2,0 L6,16 L10,27 L12,33 L20,49 L24,55 L23,59 L22,60 L10,60 L-8,56 L-16,52 L-21,46 L-22,44 L-22,37 L-20,30 L-12,14 L-5,5 Z " fill="#F9F9F9" transform="translate(169,360)"/>
<path d="M0,0 L14,0 L16,2 L5,7 L3,7 L3,21 L-3,37 L-5,40 L-9,40 L-9,42 L-13,44 L-13,46 L-17,46 L-17,48 L-19,48 L-19,50 L-36,50 L-37,48 L-34,47 L-33,44 L-36,43 L-31,43 L-27,43 L-15,37 L-10,27 L-9,21 L-17,28 L-28,39 L-34,41 L-36,42 L-36,40 L-38,41 L-40,45 L-50,46 L-52,44 L-58,41 L-58,39 L-61,39 L-62,41 L-65,39 L-65,37 L-58,37 L-50,39 L-50,37 L-53,36 L-44,33 L-38,32 L-36,26 L-23,13 L-13,6 L-6,2 Z " fill="#090303" transform="translate(272,232)"/>
<path d="M0,0 L8,0 L28,6 L32,9 L32,14 L22,31 L16,44 L14,57 L11,56 L4,45 L-1,31 L-4,18 L-4,4 Z " fill="#F9F9F9" transform="translate(129,347)"/>
<path d="M0,0 L7,1 L10,5 L10,22 L8,43 L5,53 L3,53 L-7,34 L-15,22 L-22,15 L-23,9 L-19,5 L-6,1 Z " fill="#F7F7F7" transform="translate(254,343)"/>
<path d="M0,0 L4,0 L4,11 L2,18 L0,18 L0,31 L-2,31 L-2,41 L-3,43 L-3,50 L-5,56 L-7,56 L-8,50 L-10,53 L-12,53 L-12,45 L-11,43 L-13,38 L-12,35 L-13,32 L-18,33 L-20,35 L-21,32 L-23,32 L-23,30 L-25,30 L-25,28 L-31,29 L-27,25 L-18,18 L-6,7 Z " fill="#050101" transform="translate(319,283)"/>
<path d="M0,0 L2,0 L3,19 L6,31 L9,42 L14,53 L14,55 L10,53 L-1,44 L-8,37 L-13,30 L-13,22 L-4,6 Z " fill="#F4F4F4" transform="translate(118,346)"/>
<path d="M0,0 L2,0 L1,9 L-4,17 L-16,23 L-19,24 L-22,23 L-23,27 L-25,28 L-8,29 L-8,27 L-6,27 L-6,25 L-2,25 L-1,21 L2,21 L2,19 L5,20 L-4,28 L-9,31 L-13,32 L-22,32 L-28,29 L-29,26 L-47,26 L-55,22 L-61,15 L-61,13 L-39,13 L-30,9 L-25,6 L-27,11 L-39,16 L-39,18 L-47,17 L-54,16 L-51,19 L-47,18 L-44,21 L-37,23 L-35,24 L-29,23 L-27,19 L-23,19 L-16,16 Z " fill="#190403" transform="translate(261,253)"/>
<path d="M0,0 L4,2 L11,13 L14,19 L14,31 L7,41 L-1,46 L-3,46 L-3,36 L-1,18 Z " fill="#F4F4F4" transform="translate(270,347)"/>
<path d="M0,0 L4,1 L4,3 L9,5 L9,7 L18,8 L37,18 L52,24 L52,25 L39,24 L33,24 L33,22 L36,22 L36,19 L30,18 L26,16 L27,19 L25,22 L17,22 L13,18 L13,21 L11,21 L9,25 L9,23 L6,23 L6,21 L0,26 L0,24 L-2,23 L-1,20 L2,19 L3,14 L3,10 L1,10 L2,6 L-4,8 L-4,4 L0,3 Z M2,5 Z M4,11 Z " fill="#060102" transform="translate(89,307)"/>
<path d="M0,0 L8,6 L21,15 L17,16 L14,15 L11,12 L9,11 L9,9 L6,9 L6,12 L1,12 L2,15 L7,14 L6,18 L8,18 L10,22 L8,23 L8,28 L6,29 L4,28 L5,32 L7,32 L8,30 L10,30 L10,55 L8,54 L8,52 L4,50 L3,48 L1,48 L0,43 L1,41 L3,41 L2,32 L0,32 L-2,21 L-4,21 L-4,18 L-2,18 L-3,8 L-2,2 L0,2 Z M7,13 Z M9,19 Z M2,51 L4,52 Z " fill="#0B0404" transform="translate(84,299)"/>
<path d="M0,0 L4,0 L3,2 L1,1 L3,6 L6,25 L7,27 L10,20 L11,13 L12,13 L12,25 L10,30 L5,31 L2,31 L0,32 L0,35 L-7,37 L-13,26 L-18,19 L-20,18 L-20,36 L-21,48 L-22,48 L-22,27 L-21,17 L-17,16 L-15,13 L-5,27 L-2,32 L-2,15 L-4,5 L-2,2 L0,2 Z " fill="#101110" transform="translate(290,329)"/>
<path d="M0,0 L3,1 L4,11 L11,17 L18,21 L16,23 L8,23 L1,21 L1,23 L-3,22 L-2,19 L-5,17 L-6,14 L-8,19 L-6,20 L-5,23 L0,24 L1,26 L3,26 L6,33 L1,31 L-9,23 L-13,17 L-14,10 L-11,11 L-11,16 L-10,16 L-8,8 L-10,8 L-9,3 L-6,3 L-6,1 L-2,1 Z " fill="#130909" transform="translate(138,261)"/>
<path d="M0,0 L5,2 L11,7 L12,14 L8,19 L2,29 L1,32 L-1,32 L-2,24 L-2,2 Z " fill="#E9E9E9" transform="translate(101,331)"/>
<path d="M0,0 L6,0 L9,4 L11,12 L11,30 L7,26 L1,17 L-4,10 L-4,4 Z " fill="#F8F8F8" transform="translate(278,332)"/>
<path d="M0,0 L4,4 L11,14 L14,19 L15,9 L16,9 L16,22 L9,24 L3,13 L-2,6 L-4,5 L-4,23 L-5,35 L-6,35 L-6,14 L-5,4 L-1,3 Z " fill="#161616" transform="translate(274,342)"/>
<path d="M0,0 L2,4 L4,6 L6,5 L10,21 L15,34 L18,40 L14,39 L13,42 L11,41 L8,32 L5,25 L1,11 Z M2,7 Z " fill="#1B1B1B" transform="translate(120,360)"/>
<path d="M0,0 L2,0 L1,9 L-4,17 L-11,21 L-19,21 L-17,17 Z " fill="#EDEDED" transform="translate(261,253)"/>
<path d="M0,0 L5,1 L15,10 L26,17 L24,19 L16,19 L7,13 L1,5 Z " fill="#E7E7E7" transform="translate(130,265)"/>
<path d="M0,0 L4,2 L10,9 L10,19 L7,26 L5,27 L2,13 Z " fill="#EAEAEA" transform="translate(291,330)"/>
<path d="M0,0 L1,0 L0,26 L0,49 L3,76 L3,81 L1,77 L-3,52 L-3,24 Z " fill="#2D0604" transform="translate(333,209)"/>
<path d="M0,0 L6,0 L9,4 L11,12 L11,30 L9,28 L9,15 L7,11 L5,12 L3,9 L-1,7 L-1,5 L-3,5 L-3,10 L-4,10 L-4,4 Z " fill="#E4E4E4" transform="translate(278,332)"/>
<path d="M0,0 L2,0 L2,25 L-1,22 L-4,15 L-4,6 Z " fill="#E5E5E5" transform="translate(92,329)"/>
<path d="M0,0 L4,1 L5,8 L5,16 L0,14 L-4,8 L-4,3 Z " fill="#E9E9E9" transform="translate(301,319)"/>
<path d="M0,0 L4,1 L5,6 L4,10 L5,15 L5,24 L7,31 L4,29 L3,27 L1,27 L0,22 L1,20 L3,20 L2,11 L0,11 Z M2,30 L4,31 Z " fill="#666666" transform="translate(84,320)"/>
<path d="M0,0 L4,4 L6,7 L5,12 L2,12 L-2,6 L-4,5 L-4,23 L-5,35 L-6,35 L-6,14 L-5,4 L-1,3 Z " fill="#393939" transform="translate(274,342)"/>
<path d="M0,0 L17,1 L52,1 L52,2 L40,4 L20,4 L0,1 Z " fill="#310604" transform="translate(170,428)"/>
<path d="M0,0 L2,0 L1,4 L-2,5 L-2,7 L1,7 L-1,12 L-8,16 L-8,3 L-3,3 Z " fill="#FEFEFE" transform="translate(108,337)"/>
<path d="M0,0 L2,0 L2,17 L1,13 L-2,14 L-2,12 L-7,15 L-9,16 L-7,11 Z " fill="#E0E0E0" transform="translate(118,346)"/>
<path d="M0,0 L4,4 L5,9 L3,11 L-9,11 L-14,10 L-10,8 L-6,9 L-2,10 L-2,8 L-4,7 L-2,7 Z " fill="#E7E6E6" transform="translate(188,409)"/>
<path d="M0,0 L2,0 L2,2 L5,2 L6,4 L6,17 L5,17 L4,5 L2,5 L2,27 L0,27 L0,29 L-4,27 L-4,25 L-2,25 L-1,23 L0,25 Z " fill="#181818" transform="translate(93,328)"/>
<path d="M0,0 Z " fill="#FFFFFF" transform="translate(101,490)"/>
<path d="M0,0 Z " fill="#FFFFFF" transform="translate(260,483)"/>
<path d="M0,0 Z " fill="#FFFFFF" transform="translate(189,482)"/>
<path d="M0,0 Z " fill="#FFFFFF" transform="translate(356,456)"/>
<path d="M0,0 Z " fill="#FFFFFF" transform="translate(0,444)"/>
<path d="M0,0 Z " fill="#FFFFFF" transform="translate(346,438)"/>
<path d="M0,0 Z " fill="#FFFFFF" transform="translate(353,420)"/>
<path d="M0,0 Z " fill="#FFFFFF" transform="translate(3,397)"/>
<path d="M0,0 Z " fill="#FFFFFF" transform="translate(19,158)"/>
<path d="M0,0 Z " fill="#FFFFFF" transform="translate(355,116)"/>
<path d="M0,0 Z " fill="#FFFFFF" transform="translate(47,73)"/>
<path d="M0,0 Z " fill="#FFFFFF" transform="translate(102,63)"/>
<path d="M0,0 Z " fill="#FFFFFF" transform="translate(102,52)"/>
<path d="M0,0 Z " fill="#FFFFFF" transform="translate(265,31)"/>
<path d="M0,0 Z " fill="#FFFFFF" transform="translate(316,12)"/>
<path d="M0,0 Z " fill="#FFFFFF" transform="translate(312,4)"/>
<path d="M0,0 Z " fill="#FFFFFF" transform="translate(191,0)"/>
</svg>
