<?xml version="1.0" encoding="UTF-8"?>
<svg id="Layer_1" data-name="Layer 1" xmlns="http://www.w3.org/2000/svg" xmlns:xlink="http://www.w3.org/1999/xlink" version="1.1" viewBox="0 0 648 648">
  <defs>
    <style>
      .cls-1 {
        fill: #959472;
      }

      .cls-1, .cls-2, .cls-3, .cls-4, .cls-5, .cls-6, .cls-7, .cls-8 {
        stroke-width: 0px;
      }

      .cls-2 {
        fill: url(#linear-gradient);
      }

      .cls-3 {
        fill: #434343;
      }

      .cls-4 {
        fill: #000;
      }

      .cls-5 {
        fill: #d4d3a5;
      }

      .cls-6 {
        fill: #afaeae;
      }

      .cls-7 {
        fill: #85c441;
      }

      .cls-8 {
        fill: #fcf8c9;
      }
    </style>
    <linearGradient id="linear-gradient" x1="112.23" y1="324" x2="535.77" y2="324" gradientUnits="userSpaceOnUse">
      <stop offset="0" stop-color="#333132"/>
      <stop offset="1" stop-color="#a7a9ac"/>
    </linearGradient>
  </defs>
  <circle class="cls-4" cx="324" cy="324" r="324"/>
  <g>
    <path class="cls-6" d="M299.08,317.77v-12.45h-24.92v37.37h24.92v-12.45h12.46v-12.46h-12.46Z"/>
    <path class="cls-8" d="M348.91,280.4v-24.92h-12.45v-24.92h-24.91v-12.45h-24.92v12.45h-24.92v12.46h-12.45v24.92h-12.46v12.45h-12.45v99.65h12.45v24.93h12.46v12.45h37.37v12.45h37.37v-12.45h12.45v-24.91h12.45v-24.92h12.46v-87.2h-12.46ZM336.45,305.31v37.37h-12.45v24.92h-49.83v-12.46h-12.45v-62.29h12.45v-12.45h49.83v12.45h12.45v12.46Z"/>
    <path class="cls-5" d="M199.43,267.94v24.91h-12.45v-24.91h-24.92v12.45h-12.45v99.65h62.29v-112.1h-12.46Z"/>
    <g>
      <rect class="cls-1" x="224.34" y="243.03" width="12.45" height="12.45"/>
      <rect class="cls-1" x="211.89" y="255.48" width="12.45" height="12.46"/>
      <path class="cls-1" d="M211.89,380.05h-12.46v24.93h12.46v12.45h12.45v-24.91h-12.45v-12.47Z"/>
      <rect class="cls-1" x="186.97" y="417.43" width="12.45" height="12.45"/>
      <path class="cls-1" d="M186.97,392.52h-12.46v-12.47h-12.45v24.93h12.45v12.45h12.46v-24.91Z"/>
      <path class="cls-1" d="M174.51,255.48v12.46h12.46v-12.46h12.45v-12.45h12.46v-12.46h12.45v-12.45h-24.92v12.45h-12.45v12.46h-12.46v12.45Z"/>
      <rect class="cls-1" x="162.06" y="218.11" width="12.45" height="12.45"/>
      <path class="cls-1" d="M162.06,243.03v-12.46h-12.45v12.46h-12.46v24.92h-12.45v112.1h12.45v-12.45h12.46v-112.12h12.45v-12.45Z"/>
      <rect class="cls-1" x="137.14" y="392.52" width="12.46" height="12.45"/>
    </g>
    <g>
      <path class="cls-3" d="M324,280.4h-49.83v12.45h-12.45v62.29h12.45v12.46h49.83v-24.92h12.45v-49.83h-12.45v-12.45ZM311.55,330.23h-12.46v12.45h-24.92v-37.37h24.92v12.45h12.46v12.46Z"/>
      <path class="cls-2" d="M361.37,218.11h174.4v-12.45H149.6v12.45h-12.46v12.45h-12.45v24.92h-12.46v137.04h12.46v24.91h12.45v12.45h12.46v12.46h386.17v-12.46h-186.87v-24.91h12.46v12.45h112.11v-12.45h-99.65v-12.45h-12.46v-12.47h87.2v12.47h87.2v-12.47h-74.75v-12.45h-87.19v-12.46h161.94v-12.45h-161.94v-24.92h62.29v12.46h99.66v-12.46h-87.2v-12.45h-74.74v-12.46h137.03v12.46h24.92v-12.46h-12.46v-12.45h-149.48v-12.45h161.94v-12.46h-174.4v-12.45h174.4v-12.46h-186.87v-12.45h12.46ZM149.6,404.97h-12.46v-12.45h12.46v12.45ZM224.34,404.97v12.45h-12.45v-12.45h-12.46v-24.93h-24.92v12.47h12.46v24.91h12.45v12.45h-12.45v-12.45h-12.46v-12.45h-12.45v-24.93h-12.45v-12.45h-12.46v12.45h-12.45v-112.1h12.45v-24.92h12.46v-12.46h12.45v-12.45h12.45v12.45h-12.45v24.92h-12.45v24.92h12.45v-12.45h12.45v-24.92h12.46v-12.46h12.45v-12.45h24.92v12.45h-12.45v12.46h-12.46v12.45h-12.45v37.37h12.45v-24.91h12.46v-12.46h12.45v-12.45h12.45v12.45h-12.45v12.46h-12.45v124.57h12.45v12.45ZM361.37,280.4v87.2h-12.46v24.92h-12.45v24.91h-12.45v12.45h-37.37v-12.45h-37.37v-12.45h-12.46v-24.93h-12.45v-99.65h12.45v-12.45h12.46v-24.92h12.45v-12.46h24.92v-12.45h24.92v12.45h24.91v24.92h12.45v24.92h12.46Z"/>
    </g>
    <g>
      <path class="cls-7" d="M523.31,106h-62.29v87.19h74.75v-24.91h-49.83v-12.46h37.37v-12.45h-37.37v-12.46h49.83v-24.91h-12.46Z"/>
      <path class="cls-7" d="M510.86,454.8h-62.29v87.2h87.2v-24.92h-62.29v-12.45h37.38v-12.45h-37.38v-12.46h62.29v-24.92h-24.92Z"/>
      <path class="cls-7" d="M448.57,118.45v-12.45h-87.2v24.91h37.37v62.29h12.46v-62.29h37.37v-12.45Z"/>
      <path class="cls-7" d="M398.74,454.8v37.38h24.91v-37.38h-24.91Z"/>
      <path class="cls-7" d="M373.83,492.18v24.91h24.91v-24.91h-24.91Z"/>
      <path class="cls-7" d="M361.37,529.55v12.45h12.46v-24.92h-12.46v12.46Z"/>
      <path class="cls-7" d="M361.37,492.18h-24.92v24.91h24.92v-24.91Z"/>
      <path class="cls-7" d="M336.45,467.26v-12.46h-24.91v37.38h24.91v-24.92Z"/>
      <path class="cls-7" d="M324,155.82h12.45v37.37h12.45v-62.29h-12.45v12.46h-37.37v-12.46h-12.45v62.29h12.45v-37.37h24.92Z"/>
      <path class="cls-7" d="M324,130.91h12.45v-24.91h-37.37v24.91h24.92Z"/>
      <path class="cls-7" d="M261.71,454.8h-37.37v24.92h24.92v37.37h-24.92v24.92h62.29v-24.92h-12.46v-37.37h12.46v-24.92h-24.92Z"/>
      <path class="cls-7" d="M249.26,193.19h12.45v-24.91h-12.45v24.91Z"/>
      <path class="cls-7" d="M261.71,118.45v-12.45h-12.45v24.91h12.45v-12.45Z"/>
      <rect class="cls-7" x="236.8" y="155.82" width="12.46" height="12.46"/>
      <rect class="cls-7" x="236.8" y="130.91" width="12.46" height="12.46"/>
      <path class="cls-7" d="M236.8,155.82v-12.45h-24.91v-37.37h-12.46v87.19h12.46v-37.37h24.91Z"/>
      <path class="cls-7" d="M186.97,467.26v24.92h-49.83v-37.38h-24.92v87.2h24.92v-24.92h49.83v24.92h12.45v-87.2h-12.45v12.46Z"/>
      <rect class="cls-7" x="162.06" y="155.82" width="12.45" height="12.46"/>
      <path class="cls-7" d="M149.6,143.37h-24.92v12.45h37.37v-12.45h-12.45Z"/>
      <path class="cls-7" d="M149.6,130.91h24.91v-24.91h-49.82v24.91h24.92Z"/>
      <path class="cls-7" d="M137.14,193.19h24.92v-24.91h-49.83v24.91h24.92Z"/>
      <rect class="cls-7" x="112.23" y="130.91" width="12.46" height="12.46"/>
    </g>
  </g>
</svg>